<!DOCTYPE svg PUBLIC "-//W3C//DTD SVG 1.1//EN" "http://www.w3.org/Graphics/SVG/1.1/DTD/svg11.dtd">
<!-- Uploaded to: SVG Repo, www.svgrepo.com, Transformed by: SVG Repo Mixer Tools -->
<svg fill="#ffffff" width="800px" height="800px" viewBox="0 0 32 32" xmlns="http://www.w3.org/2000/svg" stroke="#ffffff" stroke-width="0.00032">
<g id="SVGRepo_bgCarrier" stroke-width="0"/>
<g id="SVGRepo_tracerCarrier" stroke-linecap="round" stroke-linejoin="round"/>
<g id="SVGRepo_iconCarrier">
<path d="M 5 5 L 5 11 L 24 11 L 24 5 L 5 5 z M 7 7 L 22 7 L 22 9 L 7 9 L 7 7 z M 9 13 L 9 19 L 28 19 L 28 13 L 9 13 z M 11 15 L 26 15 L 26 17 L 11 17 L 11 15 z M 5 21 L 5 27 L 24 27 L 24 21 L 5 21 z M 7 23 L 22 23 L 22 25 L 7 25 L 7 23 z"/>
</g>
</svg>